<?xml version="1.0" encoding="UTF-8"?>
<svg width="32px" height="32px" viewBox="0 0 32 32" version="1.1" xmlns="http://www.w3.org/2000/svg" xmlns:xlink="http://www.w3.org/1999/xlink">
    <!-- Generator: Sketch 52.2 (67145) - http://www.bohemiancoding.com/sketch -->
    <title>Artboard</title>
    <desc>Created with Sketch.</desc>
    <g id="Artboard" stroke="none" stroke-width="1" fill="none" fill-rule="evenodd">
        <g id="closeIcon" fill="#FFFFFF">
            <path d="M-4,16 C-4,14.896 -3.104,14 -2,14 L34,14 C35.104,14 36,14.896 36,16 C36,17.104 35.104,18 34,18 L-2,18 C-3.104,18 -4,17.104 -4,16 Z" id="Path" transform="translate(16.000000, 16.000000) rotate(45.000000) translate(-16.000000, -16.000000) "></path>
            <path d="M-4,16 C-4,14.896 -3.104,14 -2,14 L34,14 C35.104,14 36,14.896 36,16 C36,17.104 35.104,18 34,18 L-2,18 C-3.104,18 -4,17.104 -4,16 Z" id="Path" transform="translate(16.000000, 16.000000) rotate(-45.000000) translate(-16.000000, -16.000000) "></path>
        </g>
    </g>
</svg>